<?xml version="1.0" encoding="utf-8"?>
<svg version="1.1" width="100" height="100" xmlns="http://www.w3.org/2000/svg">
  <style>
    .template-0 {
      fill: #000000
    }

    .SFSymbolsPreview000000 {
      fill: #aaa;
      opacity: 1.0
    }

  </style>
  <!-- <rect x="0" y="0" width="100" height="100" fill="none" stroke-width='10' stroke="red" /> -->
  <g id="Regular-S" transform="matrix(1, 0, 0, 1, 1, 85)">
    <path class="template-0 SFSymbolsPreview000000"
      d="M6.83594-20.8984Q6.83594-14.5508 9.32617-9.2041Q11.8164-3.85742 15.9912-0.634766Q20.166 2.58789 25.2441 2.58789L37.793 2.58789Q41.6016 4.63867 46.1426 5.76172Q50.6836 6.88477 55.8105 6.88477L61.084 6.88477Q64.5996 6.88477 67.5781 6.66504Q70.5566 6.44531 72.6074 5.9082Q76.709 4.93164 79.1016 2.24609Q81.4941-0.439453 81.4941-4.05273Q81.4941-5.37109 81.1523-6.54297Q85.1074-9.76562 85.1074-14.6973Q85.1074-16.9434 84.375-18.8477Q85.6445-20.2637 86.3281-22.168Q87.0117-24.0723 87.0117-26.0742Q87.0117-28.8086 85.9375-31.1035Q87.5-33.6426 87.5-37.0605Q87.5-41.4551 84.4727-44.5068Q81.4453-47.5586 77.002-47.5586L62.5977-47.5586Q61.7676-47.5586 61.7676-48.291Q61.7676-49.7559 62.7197-52.1484Q63.6719-54.541 64.9414-57.4951Q66.2109-60.4492 67.1875-63.5498Q68.1641-66.6504 68.1641-69.5801Q68.1641-73.6816 65.5762-76.3672Q62.9883-79.0527 59.0332-79.0527Q56.1035-79.0527 54.0039-77.4414Q51.9043-75.8301 50-72.168Q48.291-68.9453 46.3135-65.6738Q44.3359-62.4023 42.0166-59.0088Q39.6973-55.6152 36.9385-52.0264Q34.1797-48.4375 30.957-44.5801L23.8281-44.5801Q19.0918-44.5801 15.2344-41.3818Q11.377-38.1836 9.10645-32.7881Q6.83594-27.3926 6.83594-20.8984ZM29.6387-21.1914Q29.6387-27.2949 31.1768-31.7383Q32.7148-36.1816 36.5234-41.2598Q40.7715-46.9238 46.1426-53.833Q51.5137-60.7422 55.7129-69.2383Q56.7871-71.2891 57.5684-71.9482Q58.3496-72.6074 59.3262-72.6074Q60.3516-72.6074 61.0352-71.8262Q61.7188-71.0449 61.7188-69.5801Q61.7188-67.2852 60.7422-64.5508Q59.7656-61.8164 58.4961-58.9111Q57.2266-56.0059 56.2744-53.2715Q55.3223-50.5371 55.3223-48.291Q55.3223-44.9707 57.7393-43.0664Q60.1562-41.1621 63.5742-41.1621L77.002-41.1621Q78.7598-41.1621 79.9072-39.9902Q81.0547-38.8184 81.0547-37.0605Q81.0547-34.7656 78.9062-32.5684Q78.4668-32.1289 78.418-31.6162Q78.3691-31.1035 78.7109-30.6152Q79.6875-29.1016 80.127-28.1494Q80.5664-27.1973 80.5664-26.0742Q80.5664-23.6328 77.9785-21.5332Q77.2949-20.9961 77.0508-20.2637Q76.8066-19.5312 77.1973-18.7012Q77.9297-17.2363 78.2959-16.4551Q78.6621-15.6738 78.6621-14.6973Q78.6621-11.9629 74.5605-9.76562Q73.9746-9.42383 73.8281-8.91113Q73.6816-8.39844 73.9258-7.86133Q74.6582-5.9082 74.8291-5.32227Q75-4.73633 75-4.05273Q75-1.31836 71.0938-0.341797Q69.4336 0.0976562 66.8701 0.292969Q64.3066 0.488281 61.084 0.488281L56.3477 0.488281Q48.291 0.488281 42.2852-2.29492Q36.2793-5.07812 32.959-9.98535Q29.6387-14.8926 29.6387-21.1914ZM13.2812-20.8984Q13.2812-25.6348 14.7705-29.541Q16.2598-33.4473 18.6523-35.8154Q21.0449-38.1836 23.8281-38.1836Q24.5605-38.1836 25.3174-38.1836Q26.0742-38.1836 26.8555-38.1836Q24.9512-34.375 24.0723-30.2246Q23.1934-26.0742 23.1934-21.3379Q23.1934-16.2109 24.8535-11.792Q26.5137-7.37305 29.6387-3.85742Q28.5645-3.85742 27.4658-3.85742Q26.3672-3.85742 25.2441-3.85742Q22.0703-3.85742 19.3359-6.20117Q16.6016-8.54492 14.9414-12.4268Q13.2812-16.3086 13.2812-20.8984Z" />
  </g>
</svg>
