<?xml version="1.0" encoding="utf-8"?>
<svg version="1.1" width="100" height="100" xmlns="http://www.w3.org/2000/svg">
  <style>
    .template-0 {
      fill: #000000
    }

    .SFSymbolsPreview000000 {
      fill: #aaa;
      opacity: 1.0
    }

  </style>
  <g id="Regular-S" transform="matrix(1 0 0 1 1 85)">
    <!-- <g id="Regular-S" transform="matrix(1 0 0 1 1402.68 696)"> -->
    <path class="template-0 SFSymbolsPreview000000"
      d="M87.5-50.9766Q87.5-57.3242 85.0098-62.6953Q82.5195-68.0664 78.3447-71.2891Q74.1699-74.5117 69.0918-74.5117L56.543-74.5117Q52.7344-76.5137 48.1934-77.6611Q43.6523-78.8086 38.5254-78.8086L33.252-78.8086Q29.7363-78.8086 26.7578-78.5645Q23.7793-78.3203 21.7285-77.832Q17.627-76.8555 15.2344-74.1455Q12.8418-71.4355 12.8418-67.8711Q12.8418-66.5527 13.1836-65.332Q9.22852-62.1582 9.22852-57.2266Q9.22852-54.9316 9.96094-53.0273Q8.69141-51.6113 8.00781-49.7314Q7.32422-47.8516 7.32422-45.8008Q7.32422-43.0664 8.39844-40.8203Q6.83594-38.2812 6.83594-34.8633Q6.83594-30.4199 9.86328-27.3682Q12.8906-24.3164 17.334-24.3164L31.7383-24.3164Q32.5684-24.3164 32.5684-23.584Q32.5684-22.1191 31.6162-19.7266Q30.6641-17.334 29.3945-14.4043Q28.125-11.4746 27.1484-8.34961Q26.1719-5.22461 26.1719-2.29492Q26.1719 1.80664 28.7598 4.46777Q31.3477 7.12891 35.3027 7.12891Q38.2324 7.12891 40.332 5.51758Q42.4316 3.90625 44.3359 0.292969Q46.0449-2.97852 48.0225-6.25Q50-9.52148 52.3193-12.915Q54.6387-16.3086 57.3975-19.873Q60.1562-23.4375 63.3789-27.2949L70.5078-27.2949Q75.2441-27.2949 79.1016-30.5176Q82.959-33.7402 85.2295-39.1113Q87.5-44.4824 87.5-50.9766ZM64.6973-50.6836Q64.6973-44.6289 63.1592-40.1855Q61.6211-35.7422 57.8125-30.6152Q53.5645-24.9512 48.1934-18.042Q42.8223-11.1328 38.623-2.68555Q37.5488-0.585938 36.7676 0.0732422Q35.9863 0.732422 35.0098 0.732422Q33.9844 0.732422 33.3008-0.0488281Q32.6172-0.830078 32.6172-2.29492Q32.6172-4.58984 33.5938-7.34863Q34.5703-10.1074 35.8398-12.9883Q37.1094-15.8691 38.0615-18.6035Q39.0137-21.3379 39.0137-23.584Q39.0137-26.9531 36.5967-28.8574Q34.1797-30.7617 30.7617-30.7617L17.334-30.7617Q15.5762-30.7617 14.4287-31.9092Q13.2812-33.0566 13.2812-34.8633Q13.2812-37.1582 15.4297-39.3555Q15.8691-39.7461 15.918-40.2588Q15.9668-40.7715 15.625-41.3086Q14.6484-42.8223 14.209-43.7744Q13.7695-44.7266 13.7695-45.8008Q13.7695-48.291 16.3574-50.3906Q17.041-50.9277 17.2852-51.6357Q17.5293-52.3438 17.1387-53.1738Q16.4062-54.6387 16.04-55.4199Q15.6738-56.2012 15.6738-57.2266Q15.6738-59.9609 19.7754-62.1094Q20.3613-62.5 20.5078-62.9883Q20.6543-63.4766 20.4102-64.0137Q19.6777-65.9668 19.5068-66.5527Q19.3359-67.1387 19.3359-67.8711Q19.3359-70.5566 23.2422-71.582Q24.9023-72.0215 27.4658-72.2168Q30.0293-72.4121 33.252-72.4121L37.9883-72.4121Q46.0449-72.4121 52.0508-69.6045Q58.0566-66.7969 61.377-61.8896Q64.6973-56.9824 64.6973-50.6836ZM81.0547-50.9766Q81.0547-46.2891 79.5654-42.3584Q78.0762-38.4277 75.6836-36.084Q73.291-33.7402 70.5078-33.7402Q69.7754-33.7402 69.0186-33.7402Q68.2617-33.7402 67.4805-33.7402Q69.3848-37.5488 70.2637-41.6748Q71.1426-45.8008 71.1426-50.5859Q71.1426-55.6641 69.4824-60.083Q67.8223-64.502 64.6973-68.0176Q65.7715-68.0176 66.8701-68.0176Q67.9688-68.0176 69.0918-68.0176Q72.2656-68.0176 75-65.6738Q77.7344-63.3301 79.3945-59.4482Q81.0547-55.5664 81.0547-50.9766Z" />
  </g>
</svg>
